<?xml version="1.0" encoding="utf-8"?>
<!-- Generator: Adobe Illustrator 27.5.0, SVG Export Plug-In . SVG Version: 6.00 Build 0)  -->
<svg version="1.1" id="katman_1" xmlns="http://www.w3.org/2000/svg" xmlns:xlink="http://www.w3.org/1999/xlink" x="0px" y="0px"
	 viewBox="0 0 266.48 217.79" style="enable-background:new 0 0 266.48 217.79;" xml:space="preserve">
<style type="text/css">
	.st0{fill:#00A160;}
</style>
<path class="st0" d="M71.98,147.77h3.56c2.12,0,9.81-0.1,9.81-7c0-3-2-6.68-7.88-6.68h-5.48L71.98,147.77z M83.81,165.11
	L72.08,148.5h-0.1v16.61h-5.19v-35.84h11c5,0,7.6,1.21,9.47,3c2.17,2.28,3.35,5.33,3.27,8.48c0,9.49-7.88,11-10.19,11l10,13.37
	L83.81,165.11z"/>
<path class="st0" d="M119.24,138.28c-1.49-1.65-4.47-4.89-9.71-4.89c-7.4,0-13.17,6.39-13.17,13.9c-0.05,7.4,5.82,13.49,13.22,13.71
	c1,0,8.85-0.1,12.26-8.91h-16.6v-4.79h22.5c0,10.1-8.19,18.29-18.29,18.29c-10.1,0-18.3-8.19-18.3-18.29
	c0-10.32,7.93-18.69,18.17-18.69c6.71,0.03,12.86,3.75,16,9.68L119.24,138.28z"/>
<polygon class="st0" points="129.52,165.11 129.52,129.27 148.7,129.27 148.7,134.07 134.71,134.07 134.71,144.62 148.7,144.62 
	148.7,149.42 134.71,149.42 134.71,160.31 148.7,160.31 148.7,165.11 "/>
<polygon class="st0" points="175,165.11 157.41,137.41 157.31,137.41 157.31,165.11 152.11,165.11 152.11,129.27 157.79,129.27 
	175.1,156.54 175.19,156.54 175.19,129.27 180.38,129.27 180.38,165.11 "/>
<polygon class="st0" points="188.27,165.11 188.27,134.07 181.44,134.07 181.44,129.27 200.29,129.27 200.29,134.07 193.46,134.07 
	193.46,165.11 "/>
<path class="st0" d="M207.73,149.43v-13.25l17,13.17L207.73,149.43z M207.73,129.21h-5.62v36.19h5.63v-10.92h23.66l14.06,10.89h8
	L207.73,129.21z"/>
<path class="st0" d="M58.75,149.43l-17-0.07l17-13.17V149.43z M58.75,129.21L12.99,165.4h8l14.07-10.89h23.66v10.92h5.63v-36.22
	H58.75z"/>
<polygon class="st0" points="122.62,72.34 134.48,72.34 108.41,93 108.41,83.61 "/>
<polygon class="st0" points="152.13,118.34 140.28,118.34 166.35,97.68 166.35,107.07 "/>
<polygon class="st0" points="152.13,72.34 158.48,77.37 114.7,112.06 108.41,107.07 108.41,95.5 137.63,72.34 "/>
<polygon class="st0" points="160.05,78.62 166.35,83.61 166.35,95.18 137.12,118.34 122.62,118.34 116.28,113.31 "/>
<polygon class="st0" points="141.47,69.3 156,57.79 183.2,57.79 168.67,69.3 "/>
<polygon class="st0" points="138.32,54.32 141.25,52 141.25,66.98 138.32,69.3 "/>
</svg>
